<svg width="20" height="23" viewBox="0 0 20 23" fill="none" xmlns="http://www.w3.org/2000/svg">
<path fill-rule="evenodd" clip-rule="evenodd" d="M15.5892 10.3303C15.5892 11.3769 15.8659 11.9938 16.4746 12.7047C16.9359 13.2284 17.0834 13.9007 17.0834 14.63C17.0834 15.3585 16.844 16.0501 16.3645 16.6116C15.7367 17.2847 14.8513 17.7144 13.9477 17.7891C12.6383 17.9008 11.3281 17.9948 10.0004 17.9948C8.67197 17.9948 7.36256 17.9385 6.05315 17.7891C5.14873 17.7144 4.26337 17.2847 3.63641 16.6116C3.15687 16.0501 2.91669 15.3585 2.91669 14.63C2.91669 13.9007 3.06494 13.2284 3.52543 12.7047C4.15322 11.9938 4.41162 11.3769 4.41162 10.3303V9.97524C4.41162 8.57361 4.76113 7.65709 5.48085 6.75988C6.55091 5.4514 8.26615 4.66666 9.96316 4.66666H10.0377C11.7712 4.66666 13.5419 5.48917 14.5937 6.85388C15.2762 7.73263 15.5892 8.61054 15.5892 9.97524V10.3303ZM7.5614 19.7174C7.5614 19.2977 7.94652 19.1055 8.30266 19.0233C8.71925 18.9351 11.2577 18.9351 11.6743 19.0233C12.0305 19.1055 12.4156 19.2977 12.4156 19.7174C12.3949 20.1169 12.1605 20.4711 11.8367 20.696C11.4168 21.0233 10.924 21.2306 10.4088 21.3053C10.1239 21.3423 9.84397 21.3431 9.569 21.3053C9.05302 21.2306 8.56023 21.0233 8.14115 20.6952C7.81649 20.4711 7.58211 20.1169 7.5614 19.7174Z" fill="#808191"/>
<circle cx="15" cy="4.77783" r="3.6" fill="#EC5252" stroke="#1E2127" stroke-width="1.2"/>
</svg>
